<svg id="Livello_1" data-name="Livello 1" xmlns="http://www.w3.org/2000/svg" viewBox="0 0 13.72 18.21"><defs><style>.cls-1{fill:#f7c9b4;}.cls-2,.cls-5{fill:none;}.cls-3{fill:#331c05;}.cls-4{fill:#1d0d0d;}.cls-5{stroke:#1d0d0d;stroke-linecap:round;stroke-miterlimit:10;stroke-width:0.36px;}.cls-6{fill:#ad8a68;}</style></defs><g id="Livello_2" data-name="Livello 2"><g id="Livello_4" data-name="Livello 4"><polygon class="cls-1" points="1.66 6.42 1.66 6.42 1.66 6.42 1.66 6.42"/><path class="cls-1" d="M3,14.35c.1.29.21.61.6.63s.36-.29.42-.11A7.69,7.69,0,0,0,5.19,16.7a2.85,2.85,0,0,0,1.43,1.08,4.6,4.6,0,0,0,1.5.38,5,5,0,0,0,2.27-.3A4.6,4.6,0,0,0,12.22,17a6.14,6.14,0,0,0,.75-.69,6.12,6.12,0,0,0,1.12-2.2,5.89,5.89,0,0,0-.29.8s0,.05.07.18a.39.39,0,0,0,.3.27h.08c.42-.08.53-.5.74-.78A4.78,4.78,0,0,0,15.68,12a.62.62,0,0,0-.56-.69.67.67,0,0,0-.28,0,7.38,7.38,0,0,1-.53,1.79c.7-2,.17-4-.54-6l.69.47c.08-.1,0-.19,0-.27-.32-.78-.63-1.56-1-2.34-.08-.18-.1-.42-.29-.53-1-.61-2-1.18-3.27-.63a3.58,3.58,0,0,1-2.76.25c-1.35-.48-2.95,1-3,2.31.13,0,.16-.23.36-.14a11.59,11.59,0,0,0-.94,5.39l-.23-1c-.39-.15-.54,0-.64.39A5.64,5.64,0,0,0,3,14.35Zm3.31-3.54a.67.67,0,0,1-.55-.7.61.61,0,0,1,.55-.64.63.63,0,0,1,.54.7.59.59,0,0,1-.53.64Zm5.19.09a.6.6,0,0,1-.56-.62h0c0-.44.25-.77.57-.77a.64.64,0,0,1,.6.68v0a.65.65,0,0,1-.61.69Zm1.53-2.32c-.06.11-.18.08-.28.07a13.73,13.73,0,0,0-2.22-.06c-.1-.1-.42.09-.4-.16a.92.92,0,0,1,.49-.8A2.13,2.13,0,0,1,13,8.31c.07.08.18.16.12.27Z" transform="translate(-2.53 0)"/><path class="cls-2" d="M3,14.35c.1.29.21.61.6.63s.36-.29.42-.11A7.69,7.69,0,0,0,5.19,16.7a2.85,2.85,0,0,0,1.43,1.08,4.6,4.6,0,0,0,1.5.38,5,5,0,0,0,2.27-.3A4.6,4.6,0,0,0,12.22,17a6.14,6.14,0,0,0,.75-.69,6.12,6.12,0,0,0,1.12-2.2,5.89,5.89,0,0,0-.29.8s0,.05.07.18a.39.39,0,0,0,.3.27h.08c.42-.08.53-.5.74-.78A4.78,4.78,0,0,0,15.68,12a.62.62,0,0,0-.56-.69.67.67,0,0,0-.28,0,7.38,7.38,0,0,1-.53,1.79c.7-2,.17-4-.54-6l.69.47c.08-.1,0-.19,0-.27-.32-.78-.63-1.56-1-2.34-.08-.18-.1-.42-.29-.53-1-.61-2-1.18-3.27-.63a3.58,3.58,0,0,1-2.76.25c-1.35-.48-2.95,1-3,2.31.13,0,.16-.23.36-.14a11.59,11.59,0,0,0-.94,5.39l-.23-1c-.39-.15-.54,0-.64.39A5.64,5.64,0,0,0,3,14.35Zm3.31-3.54a.67.67,0,0,1-.55-.7.61.61,0,0,1,.55-.64.63.63,0,0,1,.54.7.59.59,0,0,1-.53.64Zm5.19.09a.6.6,0,0,1-.56-.62h0c0-.44.25-.77.57-.77a.64.64,0,0,1,.6.68v0a.65.65,0,0,1-.61.69Zm1.53-2.32c-.06.11-.18.08-.28.07a13.73,13.73,0,0,0-2.22-.06c-.1-.1-.42.09-.4-.16a.92.92,0,0,1,.49-.8A2.13,2.13,0,0,1,13,8.31c.07.08.18.16.12.27Z" transform="translate(-2.53 0)"/><path class="cls-2" d="M12.33,8.63Z" transform="translate(-2.53 0)"/><path class="cls-2" d="M12.24,8.6h-.05A0,0,0,0,1,12.24,8.6Z" transform="translate(-2.53 0)"/><path class="cls-2" d="M12.39,8.61Z" transform="translate(-2.53 0)"/><path class="cls-2" d="M12.39,8.59Z" transform="translate(-2.53 0)"/><path class="cls-2" d="M12.42,8.59" transform="translate(-2.53 0)"/><path class="cls-2" d="M12.53,8.65Z" transform="translate(-2.53 0)"/><path class="cls-2" d="M11.72,8.54Z" transform="translate(-2.53 0)"/><path class="cls-2" d="M10.72,7.6Z" transform="translate(-2.53 0)"/><path class="cls-2" d="M12,8.58Z" transform="translate(-2.53 0)"/><path class="cls-2" d="M11.8,8.6Z" transform="translate(-2.53 0)"/><path class="cls-2" d="M11.8,8.63Z" transform="translate(-2.53 0)"/><path class="cls-2" d="M11.39,7.49Z" transform="translate(-2.53 0)"/><polygon class="cls-2" points="8.7 7.51 8.69 7.49 8.66 7.5 8.7 7.51"/><path class="cls-2" d="M10.6,8.56Z" transform="translate(-2.53 0)"/><path class="cls-2" d="M10.76,7.61h0a.06.06,0,0,1,0-.06A.11.11,0,0,1,10.76,7.61Z" transform="translate(-2.53 0)"/><path class="cls-2" d="M10.53,7.74Z" transform="translate(-2.53 0)"/><path class="cls-2" d="M10.3,7.94Z" transform="translate(-2.53 0)"/><path class="cls-2" d="M11.46,7.54h0Z" transform="translate(-2.53 0)"/><path class="cls-2" d="M11.53,7.54Z" transform="translate(-2.53 0)"/><path class="cls-2" d="M11.79,7.58Z" transform="translate(-2.53 0)"/><path class="cls-2" d="M11.81,7.63Z" transform="translate(-2.53 0)"/><polygon class="cls-2" points="9.29 8.63 9.29 8.63 9.29 8.63 9.29 8.63"/><path class="cls-2" d="M10.32,8Z" transform="translate(-2.53 0)"/><path class="cls-2" d="M11,7.53Z" transform="translate(-2.53 0)"/><path class="cls-2" d="M11.88,8.61Z" transform="translate(-2.53 0)"/><path class="cls-2" d="M12.53,7.85Z" transform="translate(-2.53 0)"/><path class="cls-2" d="M12,7.7Z" transform="translate(-2.53 0)"/><path class="cls-2" d="M11.94,7.65Z" transform="translate(-2.53 0)"/><path class="cls-2" d="M11.84,7.56Z" transform="translate(-2.53 0)"/><path class="cls-2" d="M12.8,8.07Z" transform="translate(-2.53 0)"/><path class="cls-2" d="M10.31,8.58Z" transform="translate(-2.53 0)"/><path class="cls-2" d="M11.05,8.55Z" transform="translate(-2.53 0)"/><path class="cls-2" d="M10.53,8.58Z" transform="translate(-2.53 0)"/><path class="cls-2" d="M11.47,8.61h0Z" transform="translate(-2.53 0)"/><path class="cls-2" d="M10.28,8.58Z" transform="translate(-2.53 0)"/><path class="cls-2" d="M10.3,8Z" transform="translate(-2.53 0)"/><polygon points="8.23 7.61 8.23 7.61 8.23 7.61 8.23 7.61"/><path d="M10.53,8.57Z" transform="translate(-2.53 0)"/><polygon points="9.23 8.56 9.23 8.55 9.23 8.56 9.23 8.56"/><path d="M10.6,8.56" transform="translate(-2.53 0)"/><path class="cls-1" d="M13.08,8.58H13l-.1-.11h0a.14.14,0,0,0-.06-.1.22.22,0,0,0-.09-.07V8.25h0L12.61,8h-.3a0,0,0,0,1-.07,0H10.83a.06.06,0,0,1,0-.06h0a.11.11,0,0,1-.07.06h-.11l-.12-.21h0l-.06.07h.06V8h0v.1h0v.15h0v0H13v.05s-.05.06-.08,0-.05,0-.07,0h0a.15.15,0,0,1-.16,0H10.59l-.06.31h-.26V8.45h0V8.39h0V8.34h0V8.27h0a.12.12,0,0,1,.1-.11h.16V7.65h0V7.59H11s0,0,.05,0h1.22v0a.06.06,0,0,1,0,.06v.06h0Zm-.6.07Zm-.09-.06Zm0,0Zm-.05,0Zm-.11,0Zm-.27,0H12l-.1,0Zm-.09,0Zm-.36,0h0ZM11,8.52Zm-.5,0h0Zm-.21,0Zm-.09,0h0Zm0-.52Zm.1,0ZM11,7.59h0s0-.06,0-.06Zm.52,0h0Zm.08,0Zm.24.1h.05s-.06,0-.05,0Zm0,0h0Zm0,0Zm.12.09h-.05A.73.73,0,0,1,12,7.67Zm.06,0Zm.48.19Zm.28.22Z" transform="translate(-2.53 0)"/><polygon points="9.27 8.64 9.27 8.64 9.27 8.64 9.27 8.64"/><polygon points="7.77 7.95 7.77 7.95 7.77 7.95 7.77 7.95"/><path d="M12.42,8.59" transform="translate(-2.53 0)"/><polygon points="8.05 8.55 8.05 8.55 8.05 8.55 8.05 8.55"/><path d="M11.74,8.54" transform="translate(-2.53 0)"/><polygon points="8.69 7.49 8.69 7.49 8.69 7.49 8.69 7.49"/><polygon points="7.96 7.71 7.96 7.71 7.96 7.71 7.96 7.71"/><path d="M12.42,8.59" transform="translate(-2.53 0)"/><path d="M11.81,8.62Z" transform="translate(-2.53 0)"/><path d="M10.81,7.57" transform="translate(-2.53 0)"/><path d="M10.25,8.49" transform="translate(-2.53 0)"/><path class="cls-1" d="M10.32,8.52Z" transform="translate(-2.53 0)"/><path class="cls-1" d="M10.25,8.53Z" transform="translate(-2.53 0)"/><path class="cls-1" d="M11.16,8.51Z" transform="translate(-2.53 0)"/><polygon points="8.62 8.53 8.62 8.53 8.62 8.53 8.62 8.53 8.62 8.53 8.62 8.53"/><path d="M11.15,8.52" transform="translate(-2.53 0)"/><path class="cls-1" d="M11.38,8.52Z" transform="translate(-2.53 0)"/><path class="cls-1" d="M11.27,8.5Z" transform="translate(-2.53 0)"/><polygon points="8.07 8.56 8.07 8.56 8.07 8.56 8.07 8.56"/><polygon points="8.05 8.55 8.05 8.55 8.05 8.55 8.05 8.55"/><path class="cls-1" d="M10.6,8.55Z" transform="translate(-2.53 0)"/><path d="M10.58,8.55" transform="translate(-2.53 0)"/><polygon points="9.21 7.63 9.21 7.63 9.21 7.63 9.21 7.63"/><path class="cls-2" d="M11.14,10.72Z" transform="translate(-2.53 0)"/><path class="cls-2" d="M11.13,10.67Z" transform="translate(-2.53 0)"/><path class="cls-2" d="M11.19,10.73Z" transform="translate(-2.53 0)"/><path class="cls-2" d="M11.2,10.71Z" transform="translate(-2.53 0)"/><path class="cls-2" d="M11.21,10.72" transform="translate(-2.53 0)"/><path class="cls-2" d="M11.23,10.8Z" transform="translate(-2.53 0)"/><path class="cls-2" d="M11,10.39Z" transform="translate(-2.53 0)"/><path class="cls-2" d="M11.92,9.64Z" transform="translate(-2.53 0)"/><path class="cls-2" d="M11.06,10.53Z" transform="translate(-2.53 0)"/><path class="cls-2" d="M11,10.45Z" transform="translate(-2.53 0)"/><path class="cls-2" d="M11,10.46Z" transform="translate(-2.53 0)"/><path class="cls-2" d="M12.16,10Z" transform="translate(-2.53 0)"/><polygon class="cls-2" points="9.57 9.88 9.59 9.88 9.57 9.87 9.57 9.88"/><path class="cls-2" d="M11.16,9.78Z" transform="translate(-2.53 0)"/><path class="cls-2" d="M11.93,9.67Z" transform="translate(-2.53 0)"/><path class="cls-2" d="M11.79,9.55Z" transform="translate(-2.53 0)"/><path class="cls-2" d="M11.64,9.49Z" transform="translate(-2.53 0)"/><path class="cls-2" d="M12.12,10Z" transform="translate(-2.53 0)"/><path class="cls-2" d="M12.14,10.06Z" transform="translate(-2.53 0)"/><path class="cls-2" d="M12.16,10.21Z" transform="translate(-2.53 0)"/><path class="cls-2" d="M12.11,10.22Z" transform="translate(-2.53 0)"/><polygon class="cls-2" points="8.45 10.46 8.45 10.46 8.44 10.46 8.45 10.46"/><path class="cls-2" d="M11.61,9.53Z" transform="translate(-2.53 0)"/><path class="cls-2" d="M12,9.78Z" transform="translate(-2.53 0)"/><path class="cls-2" d="M11,10.49Z" transform="translate(-2.53 0)"/><path class="cls-2" d="M12.05,10.66Z" transform="translate(-2.53 0)"/><path class="cls-2" d="M12.1,10.36Z" transform="translate(-2.53 0)"/><path class="cls-2" d="M12.12,10.3Z" transform="translate(-2.53 0)"/><path class="cls-2" d="M12.19,10.23Z" transform="translate(-2.53 0)"/><path class="cls-2" d="M11.9,10.8Z" transform="translate(-2.53 0)"/><path class="cls-2" d="M11.23,9.62Z" transform="translate(-2.53 0)"/><path class="cls-2" d="M11,10Z" transform="translate(-2.53 0)"/><path class="cls-2" d="M11.15,9.71Z" transform="translate(-2.53 0)"/><path class="cls-2" d="M10.94,10.25Z" transform="translate(-2.53 0)"/><path class="cls-2" d="M11.25,9.61Z" transform="translate(-2.53 0)"/><path class="cls-2" d="M11.62,9.5Z" transform="translate(-2.53 0)"/><polygon points="9.4 9.67 9.4 9.67 9.4 9.67 9.4 9.67"/><path d="M11.15,9.74" transform="translate(-2.53 0)"/><polygon points="8.5 10.41 8.5 10.41 8.5 10.41 8.5 10.41"/><path d="M11.15,9.78" transform="translate(-2.53 0)"/><path class="cls-1" d="M11.53,10.9v-.07h.22v-.05h0v0h0v-.06h-.06v-.05H11v.05h0l.05.06h.44V11h-.15v-.06h0a.09.09,0,0,1,0-.07h0v-.08h0v-.36h0v-.07h0a.18.18,0,0,1,.06-.09h.1v0h.18a0,0,0,0,1,0,0v.06h0v.07h0v.07h0v0h0v.05h0v0h-.19Zm-.34-.11Zm0-.08Zm0,0Zm0,0Zm0-.07Zm-.07-.13Zm0,0Zm-.07-.21Zm0-.3Zm.11-.27Zm.08-.09h0s0,0,0,0Zm0,0Zm.33-.12Zm0,.08Zm.39.23h0s.09,0,.08-.05Zm.09.28Zm0,0Zm0,.15Zm0,0Zm0,0Zm-.06.08Zm0,0Zm-.08.29Zm-.15.14h0s.13,0,.12,0Z" transform="translate(-2.53 0)"/><polygon points="8.43 10.46 8.43 10.46 8.43 10.46 8.43 10.46"/><polygon points="9.11 9.49 9.11 9.49 9.11 9.49 9.11 9.49"/><path d="M11.21,10.72" transform="translate(-2.53 0)"/><polygon points="8.64 9.78 8.64 9.78 8.64 9.78 8.64 9.78"/><path d="M11,10.4" transform="translate(-2.53 0)"/><polygon points="9.59 9.88 9.59 9.88 9.59 9.88 9.59 9.88"/><polygon points="9.28 9.54 9.28 9.54 9.28 9.54 9.28 9.54"/><path d="M11.21,10.72" transform="translate(-2.53 0)"/><path d="M11,10.46" transform="translate(-2.53 0)"/><path d="M12,9.68" transform="translate(-2.53 0)"/><path d="M11.34,9.64" transform="translate(-2.53 0)"/><path class="cls-1" d="M11.27,9.67Z" transform="translate(-2.53 0)"/><path class="cls-1" d="M11.3,9.63Z" transform="translate(-2.53 0)"/><path class="cls-1" d="M11.05,10.08Z" transform="translate(-2.53 0)"/><polygon points="8.51 10.07 8.51 10.07 8.51 10.07 8.51 10.07 8.51 10.07 8.51 10.07"/><path d="M11,10.07" transform="translate(-2.53 0)"/><path class="cls-1" d="M11,10.2Z" transform="translate(-2.53 0)"/><path class="cls-1" d="M11.05,10.14Z" transform="translate(-2.53 0)"/><polygon points="8.62 9.79 8.63 9.79 8.62 9.79 8.62 9.79"/><polygon points="8.64 9.78 8.64 9.78 8.64 9.78 8.64 9.78"/><path class="cls-1" d="M11.17,9.77Z" transform="translate(-2.53 0)"/><path d="M11.17,9.77" transform="translate(-2.53 0)"/><polygon points="9.57 10.19 9.57 10.19 9.57 10.19 9.57 10.19"/><path class="cls-2" d="M6,10.62Z" transform="translate(-2.53 0)"/><path class="cls-2" d="M6,10.56Z" transform="translate(-2.53 0)"/><path class="cls-2" d="M6,10.62Z" transform="translate(-2.53 0)"/><path class="cls-2" d="M6,10.61Z" transform="translate(-2.53 0)"/><path class="cls-2" d="M6,10.61Z" transform="translate(-2.53 0)"/><path class="cls-2" d="M6,10.7Z" transform="translate(-2.53 0)"/><path class="cls-2" d="M5.85,10.3Z" transform="translate(-2.53 0)"/><path class="cls-2" d="M6.65,9.6Z" transform="translate(-2.53 0)"/><path class="cls-2" d="M5.88,10.44Z" transform="translate(-2.53 0)"/><path class="cls-2" d="M5.82,10.36Z" transform="translate(-2.53 0)"/><path class="cls-2" d="M5.79,10.37Z" transform="translate(-2.53 0)"/><path class="cls-2" d="M6.87,9.91Z" transform="translate(-2.53 0)"/><polygon class="cls-2" points="4.29 9.84 4.31 9.81 4.29 9.81 4.29 9.84"/><path class="cls-2" d="M5.94,9.73Z" transform="translate(-2.53 0)"/><path class="cls-2" d="M6.65,9.62Z" transform="translate(-2.53 0)"/><path class="cls-2" d="M6.53,9.5Z" transform="translate(-2.53 0)"/><path class="cls-2" d="M6.39,9.44Z" transform="translate(-2.53 0)"/><path class="cls-2" d="M6.83,10Z" transform="translate(-2.53 0)"/><path class="cls-2" d="M6.85,10Z" transform="translate(-2.53 0)"/><path class="cls-2" d="M6.88,10.13Z" transform="translate(-2.53 0)"/><path class="cls-2" d="M6.83,10.15Z" transform="translate(-2.53 0)"/><polygon class="cls-2" points="3.27 10.38 3.27 10.38 3.27 10.38 3.27 10.38"/><path class="cls-2" d="M6.36,9.48Z" transform="translate(-2.53 0)"/><path class="cls-2" d="M6.76,9.73Z" transform="translate(-2.53 0)"/><path class="cls-2" d="M5.83,10.4Z" transform="translate(-2.53 0)"/><path class="cls-2" d="M6.8,10.56Z" transform="translate(-2.53 0)"/><path class="cls-2" d="M6.82,10.28Z" transform="translate(-2.53 0)"/><path class="cls-2" d="M6.85,10.22Z" transform="translate(-2.53 0)"/><path class="cls-2" d="M6.91,10.16Z" transform="translate(-2.53 0)"/><path class="cls-2" d="M6.66,10.7Z" transform="translate(-2.53 0)"/><path class="cls-2" d="M6,9.58Z" transform="translate(-2.53 0)"/><path class="cls-2" d="M5.82,9.94Z" transform="translate(-2.53 0)"/><path class="cls-2" d="M5.92,9.66Z" transform="translate(-2.53 0)"/><path class="cls-2" d="M5.75,10.18Z" transform="translate(-2.53 0)"/><path class="cls-2" d="M6,9.57Z" transform="translate(-2.53 0)"/><path class="cls-2" d="M6.37,9.46Z" transform="translate(-2.53 0)"/><polygon points="4.12 9.63 4.12 9.63 4.12 9.63 4.12 9.63"/><path d="M5.93,9.69" transform="translate(-2.53 0)"/><polygon points="3.32 10.32 3.32 10.32 3.32 10.32 3.32 10.32"/><path d="M5.93,9.73" transform="translate(-2.53 0)"/><path class="cls-1" d="M6.34,10.8v-.06h.25v-.05h0v0h0v-.05H5.83a.06.06,0,0,1,0,.06h0v.07H5.74v-.05h0V10.6h0v-.07h0V9.86h0V9.79h0A.1.1,0,0,1,5.8,9.7h.73v.05h0v.06h0v.06h0v.06h0V10h0v.1h0ZM6,10.68Zm0-.07Zm0,0Zm0,0Zm0-.07ZM6,10.41Zm0,0Zm-.09-.19ZM5.94,10h0l-.11,0Zm.11-.26Zm.08-.09Zm0,0Zm.31-.11Zm0,.07Zm.36.23h0l0-.07Zm.08.26Zm0,0Zm0,.15h0l-.06,0Zm0,0Zm0,0Zm-.06.07Zm0,0Zm-.06.28Zm-.14.15h0s0,0,0,0Z" transform="translate(-2.53 0)"/><polygon points="3.26 10.37 3.26 10.37 3.26 10.37 3.26 10.37"/><polygon points="3.86 9.46 3.86 9.45 3.86 9.46 3.86 9.46"/><path d="M6,10.62" transform="translate(-2.53 0)"/><polygon points="3.42 9.72 3.42 9.72 3.42 9.72 3.42 9.72"/><path d="M5.86,10.31" transform="translate(-2.53 0)"/><polygon points="4.31 9.81 4.31 9.81 4.31 9.81 4.31 9.81"/><polygon points="4.02 9.51 4.02 9.51 4.02 9.51 4.02 9.51"/><path d="M6,10.61" transform="translate(-2.53 0)"/><path d="M5.8,10.37" transform="translate(-2.53 0)"/><path d="M6.69,9.63" transform="translate(-2.53 0)"/><path d="M6.11,9.59" transform="translate(-2.53 0)"/><path class="cls-1" d="M6,9.62Z" transform="translate(-2.53 0)"/><path class="cls-1" d="M6.07,9.59Z" transform="translate(-2.53 0)"/><path class="cls-1" d="M5.84,10Z" transform="translate(-2.53 0)"/><polygon points="3.3 10.01 3.3 10.01 3.3 10.01 3.3 10.01 3.3 10.01 3.3 10.01"/><path d="M5.83,10" transform="translate(-2.53 0)"/><path class="cls-1" d="M5.83,10.12Z" transform="translate(-2.53 0)"/><path class="cls-1" d="M5.85,10.06Z" transform="translate(-2.53 0)"/><polygon points="3.4 9.73 3.41 9.73 3.4 9.73 3.4 9.73"/><polygon points="3.42 9.72 3.42 9.72 3.42 9.72 3.42 9.72"/><path class="cls-1" d="M6,9.72Z" transform="translate(-2.53 0)"/><path d="M6,9.72" transform="translate(-2.53 0)"/><polygon points="4.3 10.13 4.3 10.13 4.3 10.13 4.3 10.13"/><path class="cls-2" d="M7.39,18Z" transform="translate(-2.53 0)"/><path class="cls-2" d="M8.13,18.18h.16S8.4,18.21,8.13,18.18Z" transform="translate(-2.53 0)"/><path class="cls-2" d="M7,17.93H7l.23.06L7,17.9Z" transform="translate(-2.53 0)"/><path class="cls-2" d="M6.93,17.94l-.19-.07h0L7,18C7.07,18,7,18,6.93,17.94Z" transform="translate(-2.53 0)"/><path class="cls-2" d="M6.76,17.87Z" transform="translate(-2.53 0)"/><path class="cls-2" d="M5.94,17.43l.23.14h.08A2.61,2.61,0,0,1,6,17.4Z" transform="translate(-2.53 0)"/><path class="cls-2" d="M12.16,17.13c.09-.08-.07.05-.06,0l-.23.17H11.8l.24-.14h0Z" transform="translate(-2.53 0)"/><path class="cls-2" d="M13.64,5.36h0a1,1,0,0,0-.1-.27A.79.79,0,0,0,13.64,5.36Z" transform="translate(-2.53 0)"/><path class="cls-2" d="M10.23,17.94c-.34.12.1,0,.08,0a.68.68,0,0,1,.2-.07l.18-.08A4.11,4.11,0,0,0,10.23,17.94Z" transform="translate(-2.53 0)"/><path class="cls-2" d="M11.53,17.44c-.08,0,.18-.05-.06.07h.07c.15,0,.17-.1.29-.16l.06-.07A3.56,3.56,0,0,1,11.53,17.44Z" transform="translate(-2.53 0)"/><path class="cls-2" d="M11.53,17.43h-.06l.25-.11h0l-.13.06Z" transform="translate(-2.53 0)"/><path class="cls-2" d="M9,4.2h.11l.18-.06H9.15Z" transform="translate(-2.53 0)"/><path class="cls-2" d="M10.26,3.74h.06l.21-.05Z" transform="translate(-2.53 0)"/><path class="cls-2" d="M15.71,12a1,1,0,0,0-.06-.33h0v.09c0,.17,0,.19.06.27h0Z" transform="translate(-2.53 0)"/><path class="cls-2" d="M13.53,5.12c0-.14-.1-.29,0-.2s.06.14,0,0V4.85a1.59,1.59,0,0,0-.11-.16A1.24,1.24,0,0,0,13.53,5.12Z" transform="translate(-2.53 0)"/><path class="cls-2" d="M14.47,7.43l-.08-.22-.07-.15a.38.38,0,0,0,0,.15h0Z" transform="translate(-2.53 0)"/><path class="cls-2" d="M14.07,8.16a.61.61,0,0,0,0,.19v.08A1.22,1.22,0,0,0,14.07,8.16Z" transform="translate(-2.53 0)"/><path class="cls-2" d="M8.47,4.24h0Z" transform="translate(-2.53 0)"/><path class="cls-2" d="M7.79,4.23H7.7a3.25,3.25,0,0,1-.43-.08h.1C7.53,4.16,7.62,4.21,7.79,4.23Z" transform="translate(-2.53 0)"/><path class="cls-2" d="M5.8,4.21h0a2.5,2.5,0,0,0-.55.31h0A6,6,0,0,1,5.8,4.21Z" transform="translate(-2.53 0)"/><path class="cls-2" d="M5.53,4.28a.64.64,0,0,1,.16-.07h.07a1.6,1.6,0,0,0-.4.23.15.15,0,0,0-.13.1l.15-.11Z" transform="translate(-2.53 0)"/><path class="cls-2" d="M11.4,17.48Z" transform="translate(-2.53 0)"/><path class="cls-2" d="M14.19,8.42c0-.1-.1-.34-.12-.47h0l.1.42Z" transform="translate(-2.53 0)"/><path class="cls-2" d="M11.94,3.82h-.09l.28.1a1.42,1.42,0,0,0-.35-.17C11.66,3.71,11.72,3.75,11.94,3.82Z" transform="translate(-2.53 0)"/><path class="cls-2" d="M11,17.64l-.18.07.24-.07h.2c.11-.05-.14,0-.09,0h.19A1.09,1.09,0,0,0,11,17.64Z" transform="translate(-2.53 0)"/><path class="cls-2" d="M3.73,9.25v0Z" transform="translate(-2.53 0)"/><path class="cls-2" d="M4.26,5.82h0a.57.57,0,0,0,0,.18,1.67,1.67,0,0,1,.08-.2S4.23,5.94,4.26,5.82Z" transform="translate(-2.53 0)"/><path class="cls-2" d="M4.73,5h0l-.12.16a.44.44,0,0,0-.08.11h0a1.23,1.23,0,0,0-.12.26.52.52,0,0,1,.12-.17A3.24,3.24,0,0,1,4.73,5Z" transform="translate(-2.53 0)"/><path class="cls-2" d="M5.53,4.38l-.27.17-.08.07.27-.18Z" transform="translate(-2.53 0)"/><path class="cls-2" d="M3.53,11.39v-.1h0A.75.75,0,0,1,3.44,11C3.45,11.16,3.53,11.26,3.53,11.39Z" transform="translate(-2.53 0)"/><path class="cls-2" d="M14.58,12.47l.06-.16c0-.14-.06.11-.09.19s0,.13,0,.12A.19.19,0,0,1,14.58,12.47Z" transform="translate(-2.53 0)"/><path class="cls-2" d="M14.45,15.33h0c.09,0,.2-.13.27-.22s.06-.1,0-.09A.69.69,0,0,1,14.45,15.33Z" transform="translate(-2.53 0)"/><path class="cls-2" d="M15.35,11.43c.07,0,.15.1.11.09h0a.18.18,0,0,1,.09.12v0h0v-.1h0c-.15-.22,0,0-.13-.14s0,0-.05-.07a.35.35,0,0,0-.15-.07h0Z" transform="translate(-2.53 0)"/><path class="cls-2" d="M13.41,15.64l-.13.21-.12.21h0c.06-.1.12-.2.22-.34h0Z" transform="translate(-2.53 0)"/><path class="cls-2" d="M14.53,12.74v-.08a2,2,0,0,0-.12.34l-.07.17h0v0h0A1.22,1.22,0,0,1,14.53,12.74Z" transform="translate(-2.53 0)"/><path class="cls-2" d="M14.14,8.34V8h0v.13h0v.17Z" transform="translate(-2.53 0)"/><polygon points="11.03 5.12 11.03 5.12 11.03 5.12 11.03 5.12"/><path d="M15.53,11.62" transform="translate(-2.53 0)"/><polygon points="9.34 17.32 9.34 17.34 9.35 17.32 9.34 17.32"/><polygon points="13.18 12.05 13.18 12.05 13.18 12.06 13.18 12.05"/><path class="cls-1" d="M3,14.35H3a.92.92,0,0,0-.09-.23l0-.12a.79.79,0,0,0-.08-.26,1.31,1.31,0,0,1-.06-.27V13h0v-.29a4.13,4.13,0,0,1,0-1.11H2.53c0-.17.05-.33.08-.5a.85.85,0,0,1,.25-.52.48.48,0,0,1,.56,0l.15.53a3.29,3.29,0,0,1,.09.43H3.5V11.3q0-.39,0-.78v-.39a.61.61,0,0,0,0-.19,2.54,2.54,0,0,1,0-.39,1.53,1.53,0,0,1,.08-.37v-.1a4.34,4.34,0,0,1,.09-.52,2.07,2.07,0,0,0,.08-.42v.1h0l0-.19v.08h0V8l.06-.25C4,7.43,4,7.4,4.05,7.1l.09-.28a.66.66,0,0,1,.09-.19v0h0c0-.12.09-.2.15-.38h0v.1h.06s-.14.15-.2.15h-.1V6.33a1,1,0,0,1,0-.24,1.11,1.11,0,0,1,.17-.47,1.88,1.88,0,0,1,.22-.45A3.21,3.21,0,0,1,5,4.62c.14-.13,0,0,.08,0a1.48,1.48,0,0,1,.31-.25,1.59,1.59,0,0,1,.49-.24H5.81L6,4.06H6A1.54,1.54,0,0,1,6.53,4,1.29,1.29,0,0,1,7,4c.09,0,.25,0,.25.08H8.41A3.62,3.62,0,0,0,9.28,4l.44-.14c.08,0-.08,0,.08,0,.32-.13,0,0,.33-.09l.34-.1h-.23a1.4,1.4,0,0,1,.29,0h.18a2.17,2.17,0,0,1,.51,0h-.14a3.4,3.4,0,0,1,.45,0,1.63,1.63,0,0,1,.39.13.68.68,0,0,1,.2.07c.08,0,.27.14.34.15l.21.11a3.76,3.76,0,0,1,.68.44c-.13-.13.09.14,0,.1h0a1.33,1.33,0,0,0,.17.43h0a.9.9,0,0,0,.08.23h0A1,1,0,0,0,13.5,5h0c0-.14-.1-.29,0-.2s.06.14,0,0V4.77a1.59,1.59,0,0,0-.11-.16h0V4.56a4.43,4.43,0,0,1,.3.67c.12.3.26.63.38.94,0,.09.1.21.08.21v.06c.06.17.14.35.21.53l.11.27c0,.06.09.24,0,.32h0a.33.33,0,0,1-.13-.07l.1.07h0a.94.94,0,0,1-.22-.12c-.26-.16-.41-.33-.33-.18v.12l-.05-.14V7.17l.11.06.21.16h0l-.09-.07-.15-.1H13.8l0,.15c.07.25.14.33.2.57l.1.29q.13.46.24.93v.11h0v.46h0v.11h0v.29a2.3,2.3,0,0,1,0,.45v1.48a3.08,3.08,0,0,1-.11.6.61.61,0,0,1-.05.12l-.09.23v.13h0l.14-.39c.11-.31.22-.59.32-.9a.51.51,0,0,1,.06-.28c.06-.1,0-.25.14-.23a.41.41,0,0,1,.22,0c-.1,0,0-.05-.22,0,0,0-.17,0-.15.12a.22.22,0,0,1,0,.16h0a.53.53,0,0,1,.06-.28.62.62,0,0,1,.59,0c.14.09.15.13.14.13h0a.33.33,0,0,1,.12.17h0v.09c0,.17,0,.19.06.27v.36h0v.1a1.3,1.3,0,0,1-.07.48h0v.26h0a5.44,5.44,0,0,1-.15.54h0v0h0a.76.76,0,0,1-.13.29c0,.08,0,.06-.06.09l-.07.16a.22.22,0,0,1-.05.08v.05l.05-.07a.14.14,0,0,0,0-.09h0l-.14.2-.15.25c-.06.12,0,0,.06-.07l.09-.17c.06-.06-.11.2-.08.19s-.1.22-.14.23h0l-.06.09h0a.22.22,0,0,1-.1.09l.07-.06h-.07l-.09.07h.07a.91.91,0,0,1-.23.15h-.22c-.22,0-.28-.24-.32-.4v-.19a.67.67,0,0,1,.07-.18L14,14h0s0-.06.11,0c-.13,0-.08.1-.12.13a2.09,2.09,0,0,0-.08.23l.06-.13c.12-.22,0,0,0-.11V14h.06v.31l-.06.2h0c0-.12-.09.18-.14.24a2.82,2.82,0,0,0-.21.38l-.07.14v.07a3.1,3.1,0,0,0,.26-.47v-.09l-.08.23-.06.09h0l0,.09a.29.29,0,0,1-.05.13.57.57,0,0,1-.08.13l.08-.15h0l-.15.27v.06a.66.66,0,0,1-.14.2c-.07.07-.08.06,0-.13l.07-.08h0a1.43,1.43,0,0,0-.14.2,1,1,0,0,1-.24.31h0a1.29,1.29,0,0,0,.16-.17h0v.07h0l-.06.07-.11.13c-.05,0-.24.19-.19.19l-.07.06a5.44,5.44,0,0,1-.42.41l-.06.05h0c.14-.16-.06,0-.16.09h0a.4.4,0,0,0,.12-.1c.09-.08-.07.05-.06,0l-.23.17h0l.06-.07c-.13.09-.23.11-.36.19s.18-.05-.06.07h.07c.15,0,.17-.1.29-.16h-.07l.24-.14h0c-.16.13,0,0,.05,0h-.06a3,3,0,0,1-.64.34h-.07l-.3.09h0l-.53.19c-.18.07-.38.12-.56.18h0l.1.17c-.15.05,0,0-.18,0H9.08a3.42,3.42,0,0,1-.64,0,3.63,3.63,0,0,1-.73-.08l-.27-.05h.24a7.26,7.26,0,0,1-1-.32l-.25-.11-.19-.08H6.3l-.18-.08L6,17.21H5.93a4.57,4.57,0,0,1-.67-.65V16.5h0l.15.16-.35-.44a.53.53,0,0,0-.12-.14h0l-.41-.18.08.12h0l-.16-.23h0v.06l-.06-.09A4.32,4.32,0,0,1,4,14.94L3.83,15H3.38a.91.91,0,0,1-.24-.37c-.06-.16.1.21.06.09V14.6l-.09-.25h.06a1.28,1.28,0,0,0,.11.27.73.73,0,0,0,.26.29h.17A.23.23,0,0,0,4,14.84s.1-.12.15-.08h0v.05c0,.13.06.12,0,.09l.06.12h0c.22.35.43.71.67,1.07.09.12.24.29.3.38a2.17,2.17,0,0,0,.24.29c.07.09.16.18.24.27a3.1,3.1,0,0,0,.65.44,3.41,3.41,0,0,0,.63.24l.45.15a3.8,3.8,0,0,0,.67.14,3.84,3.84,0,0,1,.48,0,3.31,3.31,0,0,0,.63,0h.61l.22-.07c.3-.09.6-.23.9-.3a4,4,0,0,0,.6-.21h0l.25-.11h0l-.13.06h0l.12-.08c.11,0,.27-.17.33-.19l.2-.16h0l-.12.09h0l.15-.15c.23-.22.48-.43.7-.66l.11-.13-.07.09h0l.14-.18a6,6,0,0,0,.64-1.2l.24-.67h0s.16.07.1,0h0v.15l-.06.16-.12.34v.1l.06.18a.35.35,0,0,0,.22.21.53.53,0,0,0,.45-.21c.12-.15.2-.33.31-.5a.72.72,0,0,0,.14-.24,3.51,3.51,0,0,0,.38-.92,2.69,2.69,0,0,0,0-.4,5.35,5.35,0,0,0,.07-.7,1,1,0,0,0-.06-.65.59.59,0,0,0-.47-.27h-.14a3.21,3.21,0,0,1-.19.8l-.16.47c-.06.2,0,0-.08.17v.26h-.12a1.15,1.15,0,0,1,.11-.31,3.42,3.42,0,0,0,.13-.71v-1a1.93,1.93,0,0,1,0-.34v-.45h0v-.21h0v-.2h0V9.71a2,2,0,0,0,0-.24h0V9.2h0V9h0l-.06-.3c0-.06,0-.24-.09-.3V8.29c0,.15-.08-.24,0,0h0l-.07-.23a4.06,4.06,0,0,0-.16-.44h0V7.56l-.14-.41v-.1l.1.06.19.14.27.18a1.33,1.33,0,0,1,.19.14h0V7.41l-.07-.17h0l.06.13V7.21h0l.1.22-.08-.22-.07-.15a.38.38,0,0,0,0,.15h0l-.16-.28V6.77c-.1-.24-.14-.24-.23-.46l-.06-.15V6l.09.21h0V6.12l-.19-.45V5.59h0l-.06-.18V5.5l-.65-.16c-.1-.22-.18-.51-.28-.7a3.12,3.12,0,0,0-.62-.4L12.25,4l-.47-.2a2.15,2.15,0,0,0-.8-.15h-.65l.2,0-.23.05h0a2.87,2.87,0,0,0-.37.14L9.84,4H9.73l-.2.08H9.42l-.18.06H9.06l.18-.06h.25a6.69,6.69,0,0,1-.77.2H8.08a5.07,5.07,0,0,1-.55,0,2.43,2.43,0,0,0-.38-.13c-.1,0-.2-.06-.3-.07h0L6.72,4H6.58a1.83,1.83,0,0,0-.76.17,3.15,3.15,0,0,0-.29.22c-.2.14-.24.14-.37.25s.13-.1,0,0,.15-.09,0,0a5.33,5.33,0,0,0-.42.4l-.1.08s-.14.19-.06.12a.86.86,0,0,0-.1.16A5.6,5.6,0,0,0,4.21,6v.29h0c0-.08.12-.1.21,0H4.33s-.11.08-.07,0a.22.22,0,0,1,.22,0h0V6.3c-.06.21-.15.42-.24.67a6.13,6.13,0,0,0-.18.61,1,1,0,0,1-.12.34l-.06.25c-.06.2,0,.36-.11.55s0,.13-.06.26h0s0-.22,0-.09a5.66,5.66,0,0,0-.09.65,1.14,1.14,0,0,0,0,.38v1.75H3.53v-.24c0-.12-.06-.19,0-.15h0A.57.57,0,0,1,3.42,11v-.13c-.06-.21,0-.11-.14-.16H3.06c-.09,0-.17.17-.2.29s0,.25-.07.35,0,.08,0,0h0v.06h0a.15.15,0,0,1,0,.13v.65h0v.44h0l.06.2s.08.38,0,.23l.09.34V14a2,2,0,0,0,.12.34h0v-.09h0A.18.18,0,0,0,3,14.35ZM6.25,17.6A2.61,2.61,0,0,1,6,17.43H6l.23.14Zm.68.34-.19-.07h0L7,18C7.07,18,7,18,6.93,17.94Zm.34.08L7,17.93H7Zm.38.08L7.39,18h.15Zm.92.1h0Zm2.12-.42a4.19,4.19,0,0,0-.46.16c-.34.12.1,0,.08,0a.68.68,0,0,1,.2-.07Zm.67-.24a1.4,1.4,0,0,0-.39.1l-.18.07.24-.07h.2c.11-.05-.14,0-.09,0h.1Zm2.08-2v.06l-.13.21-.12.21h0c.06-.1.12-.2.22-.34h0Zm1.3-.53a.71.71,0,0,1-.29.28h0c.09,0,.2-.13.27-.22s0-.07,0,0Zm.48-3.69h0l.09.06c.07,0,.15.1.11.09h0a.18.18,0,0,1,.09.12v.05h0v-.1h0c-.15-.22,0,0-.13-.14s0,0-.05-.07a.35.35,0,0,0-.15-.07s.05.09,0,.1Zm-.69,1.3a.22.22,0,0,1,.06-.15l.06-.16c0-.14-.06.11-.09.19A.47.47,0,0,0,14.53,12.62Zm-.18.42v.12h0c.06-.14.11-.28.16-.43s0-.09,0-.08a2,2,0,0,0-.12.34l-.07.17h0a.91.91,0,0,0,0-.16Zm-.2-4.61a.9.9,0,0,0-.07-.27h0V8h0v.13h0a.61.61,0,0,0,0,.19Zm-.08-.51.1.42v.08c0-.1-.1-.34-.12-.47Zm-2.13-4.1h-.09l.28.1a1.42,1.42,0,0,0-.35-.17C11.66,3.71,11.72,3.75,11.94,3.82Zm-4,.42h0Zm-.63-.13h.1c.12,0,.25.06.42.08s0,0-.09,0a2.57,2.57,0,0,1-.47-.08Zm-2,.39.15-.11.07-.11a.64.64,0,0,1,.16-.07h.07a1.6,1.6,0,0,0-.4.23.17.17,0,0,0-.13.06Zm0,0a6.32,6.32,0,0,1,.56-.33h0a2.5,2.5,0,0,0-.55.31Zm0,.08.27-.18,0,0-.27.17Zm-.77.89a.41.41,0,0,1,0-.11c.09-.13.13-.23.22-.34V5l-.12.16a.52.52,0,0,0-.1.11h0a2.56,2.56,0,0,0-.11.24ZM4.23,6a1.67,1.67,0,0,1,.08-.2s-.08.16,0,0h0A.64.64,0,0,0,4.23,6ZM3.69,9.5V9.3h0v.2ZM3.44,11c0,.12.08.22.09.35s0,0,0-.1h0A1.06,1.06,0,0,1,3.44,11Z" transform="translate(-2.53 0)"/><polygon points="9.08 17.39 9.08 17.39 9.08 17.39 9.08 17.39"/><polygon points="11.54 8.15 11.54 8.16 11.54 8.16 11.54 8.15"/><path d="M6.77,17.88" transform="translate(-2.53 0)"/><polygon points="13.12 11.71 13.12 11.71 13.12 11.71 13.12 11.71"/><polygon points="9.5 17.23 9.51 17.23 9.51 17.23 9.5 17.23"/><polygon points="7.79 3.75 7.79 3.75 7.79 3.75 7.79 3.75"/><polygon points="11.84 7.21 11.84 7.21 11.84 7.21 11.84 7.21"/><path d="M6.75,17.87Z" transform="translate(-2.53 0)"/><path d="M11.46,17.46Z" transform="translate(-2.53 0)"/><polygon points="10.86 4.7 10.86 4.7 10.86 4.7 10.86 4.7"/><path d="M14.53,12.81" transform="translate(-2.53 0)"/><path class="cls-1" d="M14.53,12.44v-.1a2.57,2.57,0,0,1-.16.41v.07A.86.86,0,0,0,14.53,12.44Z" transform="translate(-2.53 0)"/><path class="cls-1" d="M14.32,13l0-.17-.11.28h.1v0h0v0h-.06V13Z" transform="translate(-2.53 0)"/><path class="cls-1" d="M13.77,15h0a.22.22,0,0,1,0-.16h0V15h0s.08.17.07.09h0V15S13.74,15,13.77,15Z" transform="translate(-2.53 0)"/><polygon points="11.28 15.04 11.28 15.04 11.28 15.04 11.28 15.04 11.28 15.04 11.28 15.04"/><path d="M13.81,15" transform="translate(-2.53 0)"/><path class="cls-1" d="M13.82,15c-.07.15,0,0,0,.06l.06-.14V14.8Z" transform="translate(-2.53 0)"/><path class="cls-1" d="M14,14.16h.06v.06h0v.22a1.09,1.09,0,0,0,.08-.15v0h0L14,14.19h.13s.06,0-.06-.07h0Z" transform="translate(-2.53 0)"/><polygon points="13.18 12.06 13.18 12.04 13.18 12.05 13.18 12.06"/><polygon points="13.12 11.71 13.12 11.71 13.12 11.71 13.12 11.71"/><path class="cls-1" d="M15.68,11.79a.33.33,0,0,0,0-.14h0a1,1,0,0,1,.06.33A.7.7,0,0,0,15.68,11.79Z" transform="translate(-2.53 0)"/><path d="M15.65,11.7" transform="translate(-2.53 0)"/><polygon points="3.5 4.06 3.53 4.05 3.53 4.05 3.5 4.06"/><path class="cls-3" d="M10.58,8.59a13.73,13.73,0,0,1,2.22.06c.1,0,.22,0,.28-.07S13,8.39,13,8.31a2.13,2.13,0,0,0-2.31-.68.92.92,0,0,0-.49.8C10.16,8.68,10.53,8.49,10.58,8.59Z" transform="translate(-2.53 0)"/><path class="cls-4" d="M7.09,15a.23.23,0,0,0-.21.25.06.06,0,0,1,0,0c0,.18.15.09.25.1.75.06,1.45.15,2.21.22l.2.05c.1,0,.22.07.26-.11s-.1-.22-.19-.25A21.55,21.55,0,0,0,7.09,15Z" transform="translate(-2.53 0)"/><path class="cls-4" d="M10.58,14.06a.2.2,0,0,0-.19.16.16.16,0,0,0,.18.14h0c.1,0,.19-.07.18-.16a.16.16,0,0,0-.18-.14Z" transform="translate(-2.53 0)"/><path class="cls-4" d="M10.58,14.06a.2.2,0,0,0-.19.16.16.16,0,0,0,.18.14h0c.1,0,.19-.07.18-.16a.16.16,0,0,0-.18-.14Z" transform="translate(-2.53 0)"/><path class="cls-4" d="M10.58,14.06a.2.2,0,0,0-.19.16.16.16,0,0,0,.18.14h0c.1,0,.19-.07.18-.16a.16.16,0,0,0-.18-.14Z" transform="translate(-2.53 0)"/><path class="cls-5" d="M8.16,13.46s-.91-.75-.63-1.46,1-2,.56-3.12" transform="translate(-2.53 0)"/><path class="cls-3" d="M7.53,8.64A1.18,1.18,0,0,0,6.3,7.73H5.6a.59.59,0,0,0-.67.48v0a3.83,3.83,0,0,1-.22.56c0,.11.37-.07.54-.09C6.1,8.56,6.58,8.74,7.53,8.64Z" transform="translate(-2.53 0)"/><path class="cls-3" d="M7.53,8.64A1.18,1.18,0,0,0,6.3,7.73H5.6a.59.59,0,0,0-.67.48v0a3.83,3.83,0,0,1-.22.56c0,.11.37-.07.54-.09C6.1,8.56,6.58,8.74,7.53,8.64Z" transform="translate(-2.53 0)"/><path class="cls-4" d="M5.79,10.11a.67.67,0,0,0,.55.7.59.59,0,0,0,.54-.64h0a.63.63,0,0,0-.54-.7A.61.61,0,0,0,5.79,10.11Z" transform="translate(-2.53 0)"/><path class="cls-4" d="M11.53,9.51c-.32,0-.57.33-.57.77a.59.59,0,0,0,.56.62h0a.65.65,0,0,0,.61-.69h0a.64.64,0,0,0-.57-.7Z" transform="translate(-2.53 0)"/><path class="cls-6" d="M15.77,6.65a.74.74,0,0,1,0,.21,4,4,0,0,1-.09.84v.07a2.39,2.39,0,0,1-.52,1.4,3.11,3.11,0,0,1-.14.66,24.15,24.15,0,0,1-.43,2.56,24.27,24.27,0,0,0-.11-2.64,4.45,4.45,0,0,1-2.15.44A8.3,8.3,0,0,1,11,10.3c-1.14,0-2.33-1.22-3.61-2.21-.21-.17-1.74-.49-2-.9a3.86,3.86,0,0,1-1.22-.1,11.64,11.64,0,0,0-.62,4.57l-.23-1a1.24,1.24,0,0,0-.09-.6,10.44,10.44,0,0,1,0-2.37,11.81,11.81,0,0,1,0-1.19A1.28,1.28,0,0,1,3,6,.26.26,0,0,1,3,5.8,11.09,11.09,0,0,1,3,4.17a4.14,4.14,0,0,1,.9-2.45A1.42,1.42,0,0,1,5,1.16h.21a.44.44,0,0,1,.08-.11L5.38,1c0-.27.4-.44.73-.53H6.2A2.21,2.21,0,0,1,7.39.09a1.28,1.28,0,0,1,.34.07c.4,0,.8-.06,1.41-.09a2.38,2.38,0,0,1,.7.11,3,3,0,0,1,1.39,0,4.43,4.43,0,0,1,.88.33l.26.11a2.61,2.61,0,0,1,.68.11,3.86,3.86,0,0,1,.72.32,2.32,2.32,0,0,1,.57.51,2.15,2.15,0,0,1,.79.85c.22.42.26.92.44,1.36.25.64.8,1.23.66,1.91A9,9,0,0,1,15.77,6.65Z" transform="translate(-2.53 0)"/><path class="cls-6" d="M15.77,6.65h-.06a.81.81,0,0,0,.07-.22l.07-.12A.59.59,0,0,0,16,6.09l.12-.22V5.7a.74.74,0,0,0,0-.21h0a.53.53,0,0,0,0-.25,3.05,3.05,0,0,0-.39-.91h0a3.25,3.25,0,0,1-.38-.9,4.7,4.7,0,0,0-.27-.88,1.87,1.87,0,0,0-.22-.39A1,1,0,0,0,14.78,2a6.17,6.17,0,0,0-.54-.48A2.85,2.85,0,0,0,14,1.26a.56.56,0,0,0-.15-.1A1.68,1.68,0,0,0,13.53,1c-.1,0-.3-.14-.28-.16h-.09A3.45,3.45,0,0,0,12.7.72L12.3.64h.12a.68.68,0,0,1-.2-.07h.08l-.2,0a1.44,1.44,0,0,0-.22-.07,3.16,3.16,0,0,0-.54-.2A.72.72,0,0,0,11.09.2h-.23a1.24,1.24,0,0,0-.33,0,4.87,4.87,0,0,0-.65.1H9.81L9.34.14H7.79a2.89,2.89,0,0,1-.5-.08H7.2a2.92,2.92,0,0,0-.4.1L6.38.43,6.26.5H5.94a2.5,2.5,0,0,0-.27.15.59.59,0,0,0-.14.27l-.06.14-.09.09a.31.31,0,0,1-.09.11H4.93a1.47,1.47,0,0,0-.4.14,1.86,1.86,0,0,0-.35.22c-.06,0,.06,0-.06.08s0,0-.23.2-.19.22-.18.27h0L3.82,2c.08-.09.07-.06.06,0l-.15.2-.09.14h0c-.07.14-.13.27-.19.42v-.1c-.05.12-.09.25-.13.38a.85.85,0,0,1-.11.36.61.61,0,0,1,0,.19,1.93,1.93,0,0,0,0,.34V5h0V5h0a1.55,1.55,0,0,0,0,.43h0a.81.81,0,0,0,0,.22h0a1.22,1.22,0,0,0,0-.27h0V5.19h0A.52.52,0,0,1,3.1,5h0a4,4,0,0,1,0,.69v.17h0a.44.44,0,0,0,0,.32c0,.14.11.18.18.37s0,.21,0,.21V8.19h0V8.3a.49.49,0,0,1,0,.17.17.17,0,0,0,0,.1V9a5,5,0,0,0,0,.55v.28a3.76,3.76,0,0,1,.14.88v.09h0l.11.18h0v.17h0v.1h0l.05.17v.2H3.45V10a1.81,1.81,0,0,1,.06-.56V9l.09-.44a6.42,6.42,0,0,1,.23-.86c0-.14.12-.37.19-.54V7.12h0S4,7.05,4,7.18a.82.82,0,0,1-.12.32h0l.09-.24s0-.27.19-.18H5.27l.26.16-.07-.07a.88.88,0,0,0,.08.11h0c.17.1.31.16.39.22H6c-.07-.06.14,0,.23.06h0l.49.16h0l.28.1c.18.06,0,0,.08,0h.18L7.34,8h0a.74.74,0,0,1,.19.16l.21.17c.11.07,0,0-.06-.07l-.15-.1c0-.07.18.12.16.09a.66.66,0,0,1,.2.17h0L8,8.48H8l.08.07H8v.06l.08.06V8.62h0l.19.14h0l.07.08h0l-.13-.1.08.07c.15.14.08,0,.12.08s.22.2.36.3a.61.61,0,0,0,.16.12l.13.11.35.22h0V9.7l0-.1c-.1-.09-.12-.07-.19-.13l.1.09c.18.15,0,0,.1,0l.07,0a1.09,1.09,0,0,0,.34.17l.16.09h0c-.11,0,.15.1.21.14a1,1,0,0,0,.37.17h.21a3.71,3.71,0,0,1-.47-.16h-.09l.22.06h.87c.1,0,.1,0-.11.05h.13a2.29,2.29,0,0,1,.37,0h1.72c.08,0-.18,0,.06-.05h-.53a3.19,3.19,0,0,0,.62-.08h0a1.36,1.36,0,0,0,.29-.06h0a2.92,2.92,0,0,0,.49-.19l.19-.1v.47h0v0h0v.38h0V11h0a5.81,5.81,0,0,1,0,.59v.67a.89.89,0,0,0,0,.23h.11v-.3h0v.3h-.08a5.32,5.32,0,0,0,.18-.79l0-.25v-.19h0v-.37c.06-.27.06-.56.11-.84V9.92h0v.22s.07-.35.11-.52,0-.12,0-.18h0L15,9.19,15.2,9l-.07.1h0a1.59,1.59,0,0,0,.13-.22h0v0A2.36,2.36,0,0,0,15.62,8V7.74h0V7.22a1,1,0,0,1,.05-.38c.05-.12,0,.21,0,.09h0V6.7h.06a1.41,1.41,0,0,1,0,.29,1.4,1.4,0,0,1-.06.41v.36h0v.11a.29.29,0,0,1,0,.13h0v.26h0a1.69,1.69,0,0,1-.2.57c0,.08-.1.17-.16.25a.39.39,0,0,1-.08.1v.15a2.11,2.11,0,0,1-.1.45c0,.11,0,.23-.05.34v.34a6.43,6.43,0,0,1-.1.74c0,.12-.08.42-.1.63a2.16,2.16,0,0,1-.1.44v.11h-.25v-.52a3.38,3.38,0,0,1,0-.45q0-.3,0-.6h0v-.35h0V10c0-.2,0-.16-.1-.12a1.92,1.92,0,0,1-.42.16,2.94,2.94,0,0,1-.59.12H12.36l-.76.07h-.29A2.09,2.09,0,0,1,10,10.1a6.44,6.44,0,0,1-1.12-.75l-.55-.43-.83-.69c-.07-.06-.17-.14-.2-.12-.27-.14-.62-.2-.89-.32A2.42,2.42,0,0,0,6,7.65a1.62,1.62,0,0,1-.59-.38,2.91,2.91,0,0,1-.59,0,2.52,2.52,0,0,1-.54-.08l0,.17-.21.72a3.63,3.63,0,0,0-.1.45V9a3.2,3.2,0,0,1-.07.33c0,.22,0,.45,0,.67v.93a.86.86,0,0,1,0,.32v.48H3.57l0-.19v-.17h0v-.16a1.74,1.74,0,0,0,0-.22h0v-.12h0a.21.21,0,0,1,0-.11h0v-.17h0a2.56,2.56,0,0,0,0-.27c0-.06,0-.24-.08-.3v-.1h0V9.66a3.38,3.38,0,0,1,0-.45h0V9a6.5,6.5,0,0,1,0-1V7.93h0v0h0V7.44h0V7.5h0v0h0v-1l-.27-.06a.24.24,0,0,1,0-.12.82.82,0,0,0,.12.2h0l-.06-.1A1.51,1.51,0,0,1,3,6V6H3a.21.21,0,0,1,0-.11H3V3.77c0-.16.07-.32.11-.48a6.49,6.49,0,0,1,.26-.74l.17-.18.16-.24A.54.54,0,0,1,3.76,2h0l-.08.15L3.82,2h0s.15-.22.22-.3l.08-.11a.18.18,0,0,0,.09-.08.69.69,0,0,1,.13-.11h.1l.14-.1.13-.05.13-.05h.1a.76.76,0,0,0-.2.06l-.16,0-.13.06H4.3A1.55,1.55,0,0,1,5,1.09h.14L5.22,1h.12V.88A1,1,0,0,1,5.82.51c.06,0,.23-.07.37-.1L6.45.29h.12s0,0,0,0L6.64.17A1.83,1.83,0,0,1,7.4,0a1,1,0,0,1,.32.07h.41a5,5,0,0,1,.55,0h.17L9,0a1.47,1.47,0,0,1,.59.06h.3A2.05,2.05,0,0,1,10.41,0h-.15l.27.05a1.89,1.89,0,0,1,.67,0c.19.05.38.13.57.19a1.69,1.69,0,0,1,.31.13l.21.13c.14.09.32,0,.5.11s.12,0,.25.05h0s-.21-.05-.09,0a2.34,2.34,0,0,1,.58.2,3.18,3.18,0,0,1,.32.16,1.33,1.33,0,0,1,.26.21c.14.12.2.25.36.34l.09.06c-.05,0,.18.18,0,.09s-.15-.12,0,0l.1.06a1.3,1.3,0,0,1,.39.45l.06.11c.07.1.1.16.06.13h0a1,1,0,0,1,.09.21.17.17,0,0,0,.05.12s.06.12.09.28h0v.06s.06.14,0,.18a1.21,1.21,0,0,0,.11.37c0,.11.1.21.14.3s0,.09,0,0h0l.07.13V4h0a.24.24,0,0,1,.06.11h0a2.21,2.21,0,0,1,.18.34l.07.17h0a2.48,2.48,0,0,1,.08.27c0,.07,0,0,0,.07v.08h0v.41a1.42,1.42,0,0,1-.11.33l-.17.33a1,1,0,0,0-.14.3h0c0-.12,0,.07,0-.09h0A.3.3,0,0,0,15.77,6.65Zm-.91,4.52.06-.31h0v.25Zm-.16.68a.54.54,0,0,0,0-.18h0v.25C14.66,12,14.68,11.93,14.7,11.85Zm0,.33.07-.22v0Zm0,.07v.14h0v-.1h0v.13h0v-.17Zm0-.87v.41h0Zm-.47-1.49.21-.08c.07,0,.18-.13.17,0s0,.15,0,.09V9.71a.4.4,0,0,1-.21.09l-.2.09Zm-.63.2a.78.78,0,0,0,.37-.06l.17-.07a.79.79,0,0,1-.22.06H13.6Zm-2.72.24h.06a.53.53,0,0,0,.25,0h.13a.81.81,0,0,1-.38,0h-.06ZM7.88,8.43c.08.08.21.16.28.24h0c0-.07-.17-.14-.25-.21S7.87,8.42,7.88,8.43ZM4.41,7.13h.28c-.24,0-.06,0-.18,0h-.1Zm-.54,1.3V8.12c0-.13,0,.11-.07.18S3.86,8.43,3.87,8.43Zm-.13.65.11-.54V8.46a1,1,0,0,0-.06.33A.93.93,0,0,0,3.74,9.08Zm-.52.85a1.13,1.13,0,0,0,0-.26h0v.11a.09.09,0,0,0,0,.07V9.56h0v.12h0v.25Zm0-.48v.48a3.23,3.23,0,0,1,0-.44Zm0-6v.19a1.91,1.91,0,0,0,.1-.34c0-.13-.06-.07-.11.14ZM5.58.73A1.22,1.22,0,0,0,5.34,1l-.06.12c0-.07.08-.1.13-.18A.53.53,0,0,1,5.53.8ZM6.11.48,6,.5c-.1.06-.23.08-.37.17s0,0,.09,0ZM8,.19H7.86a.41.41,0,0,1-.22,0h.22C7.93.2,8,.22,8,.19Zm0,0H7.76a1.71,1.71,0,0,1-.32,0h0A1.64,1.64,0,0,0,8,.25Zm.08,0h0Zm1.1,0H8.69a.61.61,0,0,0,.19,0h.33Zm.46.07L9.53.12h0ZM13.43,1l-.18-.1h0c-.05,0,.1.06.13.09Zm1.83,1.81a2.88,2.88,0,0,0-.13-.31v.08h0a.93.93,0,0,1,.14.14Z" transform="translate(-2.53 0)"/><path class="cls-6" d="M3.85,8.25v-.1a2,2,0,0,1-.11.4v.07C3.8,8.55,3.81,8.36,3.85,8.25Z" transform="translate(-2.53 0)"/><path class="cls-6" d="M3.74,8.83V8.68L3.69,9h0V8.86Z" transform="translate(-2.53 0)"/><path class="cls-6" d="M8.83,9.18h.06l.1.08H9l-.14-.12c-.09-.07-.14-.1-.09,0l.18.13Z" transform="translate(-2.53 0)"/><path class="cls-6" d="M10.21,10.08c.14.06,0,0,0,0L10.14,10H10Z" transform="translate(-2.53 0)"/><path class="cls-6" d="M9.53,9.64l.13.1h.07a.66.66,0,0,0-.2-.06C9.43,9.58,9.63,9.74,9.53,9.64Z" transform="translate(-2.53 0)"/><polygon class="cls-6" points="2.47 7.17 2.35 7.14 2.39 7.17 2.69 7.17 2.47 7.17"/></g></g></svg>